<?xml version="1.0" encoding="utf-8"?>
<!-- Generator: Adobe Illustrator 18.0.0, SVG Export Plug-In . SVG Version: 6.00 Build 0)  -->
<!DOCTYPE svg PUBLIC "-//W3C//DTD SVG 1.1//EN" "http://www.w3.org/Graphics/SVG/1.1/DTD/svg11.dtd">
<svg version="1.1" id="Layer_1" xmlns="http://www.w3.org/2000/svg" xmlns:xlink="http://www.w3.org/1999/xlink" x="0px" y="0px"
	 viewBox="0 0 40.9 40.4" enable-background="new 0 0 40.9 40.4" xml:space="preserve">
<g id="XMLID_2085_">
	<path id="XMLID_2091_" fill="none" stroke="#2DABE2" stroke-width="1.5" stroke-miterlimit="10" d="M20.1,39.5L20.1,39.5
		c-10.5,0-19-8.5-19-19v0c0-10.5,8.5-19,19-19l0,0c10.5,0,19,8.5,19,19v0C39.2,31,30.7,39.5,20.1,39.5z"/>
	<path id="XMLID_2086_" fill="#2DABE2" d="M20.1,9.3C14,9.3,9,14.3,9,20.5c0,6.1,5,11.1,11.1,11.1c6.1,0,11.1-5,11.1-11.1
		C31.3,14.3,26.3,9.3,20.1,9.3z M25.3,25.4c-0.2,0.3-0.6,0.4-0.9,0.2c-2.6-1.6-5.9-1.9-9.8-1.1c-0.4,0.1-0.7-0.2-0.8-0.5
		c-0.1-0.4,0.2-0.7,0.5-0.8c4.2-0.9,7.9-0.6,10.8,1.2C25.4,24.6,25.4,25.1,25.3,25.4z M26.6,22.4c-0.3,0.4-0.8,0.6-1.2,0.3
		c-3-1.8-7.6-2.4-11.1-1.3c-0.4,0.1-0.9-0.1-1.1-0.6c-0.1-0.4,0.1-0.9,0.6-1.1c4.1-1.2,9.1-0.6,12.5,1.5
		C26.7,21.4,26.9,22,26.6,22.4z M26.7,19.2c-3.6-2.1-9.5-2.3-12.9-1.3c-0.6,0.2-1.1-0.2-1.3-0.7c-0.2-0.6,0.2-1.1,0.7-1.3
		c3.9-1.2,10.5-0.9,14.6,1.5c0.5,0.3,0.7,0.9,0.4,1.4C27.9,19.3,27.2,19.5,26.7,19.2z"/>
</g>
</svg>
